<?xml version="1.0" encoding="UTF-8" standalone="no"?>
<!DOCTYPE svg PUBLIC "-//W3C//DTD SVG 1.1//EN" "http://www.w3.org/Graphics/SVG/1.1/DTD/svg11.dtd">
<svg width="100%" height="100%" viewBox="0 0 402 450" version="1.1" xmlns="http://www.w3.org/2000/svg" xmlns:xlink="http://www.w3.org/1999/xlink" xml:space="preserve" xmlns:serif="http://www.serif.com/" style="fill-rule:evenodd;clip-rule:evenodd;stroke-linecap:round;stroke-linejoin:round;stroke-miterlimit:1.5;">
    <g transform="matrix(1,0,0,1,-75.212,-1234.13)">
        <g>
            <g transform="matrix(1,0,0,1,-28.5345,-14.5482)">
                <path d="M219.295,1394.46C208.813,1400.11 196.821,1403.32 184.086,1403.32C143.074,1403.32 109.777,1370.03 109.777,1329.01C109.777,1288 143.074,1254.71 184.086,1254.71C225.098,1254.71 258.394,1288 258.394,1329.01C258.394,1340.74 255.674,1351.83 250.832,1361.69L219.295,1361.69L219.295,1394.46ZM201.157,1288.06L182.645,1288.06C180.265,1293.12 176.969,1297.36 172.757,1300.81C168.546,1304.25 162.632,1307.2 155.014,1309.65L155.014,1328C160.178,1326.42 164.472,1324.78 167.896,1323.05C171.32,1321.33 174.863,1319.08 178.525,1316.3L178.525,1369.97L201.157,1369.97L201.157,1288.06Z" style="fill:white;stroke:white;stroke-width:12.06px;"/>
            </g>
            <path d="M384.835,1599.68C384.835,1599.68 383.161,1509.54 384.835,1489.34C385.243,1484.42 391.886,1478.9 394.879,1478.45C397.872,1478.01 402.5,1482.88 402.793,1486.67C404.112,1503.77 402.793,1581.03 402.793,1581.03L402.793,1531.11C402.793,1531.11 406.8,1523.7 409.641,1524.26C412.482,1524.82 419.837,1534.46 419.837,1534.46L419.837,1578.59L419.837,1537.81L432.012,1537.81L442.056,1547.85L442.056,1576.77L442.056,1551.81L451.796,1551.81L460.47,1560.48L460.47,1633.07L446.393,1647.15L446.393,1667.16L385.748,1667.16L385.748,1651.34L368.399,1633.99C368.399,1633.99 349.503,1577.55 348.007,1563.98C347.417,1558.63 356.098,1553.05 359.42,1552.57C362.743,1552.09 367.943,1561.09 367.943,1561.09L384.835,1599.68Z" style="fill:none;stroke:white;stroke-width:12.06px;"/>
            <path d="M235.804,1370.63L253.893,1398.57C253.893,1398.57 244.225,1408.7 242.938,1415.21C241.608,1421.95 241.947,1434.63 245.91,1438.99C249.873,1443.35 260.772,1443.62 266.717,1441.37C272.661,1439.12 281.578,1425.52 281.578,1425.52L302.979,1450.29C302.979,1450.29 289.759,1473.74 281.578,1478.43C273.572,1483.02 262.154,1482.54 253.893,1478.43C245.274,1474.13 229.86,1452.66 229.86,1452.66C229.86,1452.66 216.088,1435.23 213.809,1425.52C211.53,1415.81 212.521,1403.55 216.187,1394.41C219.853,1385.26 235.804,1370.63 235.804,1370.63Z" style="fill:none;stroke:white;stroke-width:12.06px;"/>
            <path d="M258.394,1606.63L222.726,1572.79L297.035,1572.79L258.394,1606.04L265.788,1599.68L294.657,1626.84L297.035,1572.79L222.726,1572.79L219.754,1629.22L246.505,1599.68L219.754,1629.22L294.657,1626.84L265.788,1599.68L258.394,1606.63Z" style="fill:none;stroke:white;stroke-width:12.06px;"/>
            <g transform="matrix(1,0,0,1,300.206,-338.998)">
                <g transform="matrix(83.3333,0,0,83.3333,152.165,1777.84)">
                </g>
                <text x="67.57px" y="1777.84px" style="font-family:'ArialMT', 'Arial', sans-serif;font-size:83.333px;fill:white;stroke:white;stroke-width:1px;stroke-linecap:butt;stroke-miterlimit:2;">@</text>
            </g>
            <g transform="matrix(1,0,0,1,-1.45132,-2.90269)">
                <path d="M223.749,1350.05L318.478,1350.05L318.478,1506.79L192.211,1506.79L192.211,1382.81" style="fill:none;stroke:white;stroke-width:12.06px;"/>
            </g>
            <g transform="matrix(1,0,0,1,-1.45132,171.258)">
                <rect x="192.211" y="1350.05" width="126.266" height="156.744" style="fill:none;stroke:white;stroke-width:12.06px;"/>
            </g>
            <g transform="matrix(1,0,0,1,152.39,-2.90269)">
                <path d="M231.875,1506.79L192.211,1506.79L192.211,1350.05L318.478,1350.05L318.478,1506.79L250.918,1506.79" style="fill:none;stroke:white;stroke-width:12.06px;"/>
            </g>
        </g>
    </g>
</svg>
