<?xml version="1.0" encoding="UTF-8" standalone="no"?>
<!DOCTYPE svg PUBLIC "-//W3C//DTD SVG 1.1//EN" "http://www.w3.org/Graphics/SVG/1.1/DTD/svg11.dtd">
<svg width="100%" height="100%" viewBox="0 0 402 454" version="1.1" xmlns="http://www.w3.org/2000/svg" xmlns:xlink="http://www.w3.org/1999/xlink" xml:space="preserve" xmlns:serif="http://www.serif.com/" style="fill-rule:evenodd;clip-rule:evenodd;stroke-linecap:round;stroke-linejoin:round;stroke-miterlimit:1.5;">
    <g transform="matrix(1,0,0,1,-1521.81,-1248.04)">
        <g>
            <path d="M1802.04,1598.12L1802.04,1651.62L1839.2,1620.41L1802.04,1598.12Z" style="fill:none;stroke:white;stroke-width:12.06px;"/>
            <path d="M1839.2,1620.41L1915.73,1472.64C1915.73,1472.64 1920.07,1447.05 1914.99,1441.33C1909.91,1435.62 1892.45,1434.89 1885.27,1438.36C1878.08,1441.83 1871.89,1462.14 1871.89,1462.14L1901.62,1482.94L1871.89,1462.14L1802.04,1595.15L1839.2,1620.41Z" style="fill:none;stroke:white;stroke-width:12.06px;"/>
            <path d="M1633.36,1391.17L1633.36,1695.47L1870.4,1695.47L1869.55,1561.82M1868.94,1467.76L1868.18,1349.19L1644.28,1349.19M1868.94,1467.76L1868.18,1349.19L1644.28,1349.19" style="fill:none;stroke:white;stroke-width:12.06px;"/>
            <path d="M1671.26,1539.42L1780.49,1539.42" style="fill:none;stroke:white;stroke-width:12.06px;"/>
            <path d="M1671.26,1574.34L1780.49,1574.34" style="fill:none;stroke:white;stroke-width:12.06px;"/>
            <g transform="matrix(1,0,0,1,0,-7)">
                <path d="M1671.26,1620.41L1780.49,1620.41" style="fill:none;stroke:white;stroke-width:12.06px;"/>
            </g>
            <g transform="matrix(1,0,0,1,-25.2649,-3.71542)">
                <path d="M1658.63,1438.7C1653.91,1439.45 1649.07,1439.85 1644.14,1439.85C1593.9,1439.85 1553.11,1399.06 1553.11,1348.82C1553.11,1298.58 1593.9,1257.79 1644.14,1257.79C1694.38,1257.79 1735.16,1298.58 1735.16,1348.82C1735.16,1350.19 1735.13,1351.55 1735.07,1352.9C1733.15,1396.37 1700.68,1431.96 1658.63,1438.7ZM1669.55,1352.9C1672.51,1350.13 1674.8,1347.48 1676.42,1344.95C1679.66,1339.93 1681.28,1334.66 1681.28,1329.13C1681.28,1323.94 1679.87,1319.26 1677.04,1315.08C1674.22,1310.89 1670.35,1307.79 1665.42,1305.78C1660.5,1303.76 1653.61,1302.75 1644.75,1302.75C1636.27,1302.75 1629.62,1303.81 1624.82,1305.93C1620.03,1308.05 1616.31,1311.1 1613.67,1315.08C1611.03,1319.05 1609.22,1324.58 1608.23,1331.67L1633.44,1333.71C1634.14,1328.6 1635.52,1325.04 1637.56,1323.02C1639.59,1321 1642.22,1319.99 1645.43,1319.99C1648.52,1319.99 1651.09,1320.97 1653.13,1322.92C1655.17,1324.88 1656.19,1327.24 1656.19,1330C1656.19,1332.55 1655.16,1335.25 1653.1,1338.1C1651.04,1340.94 1646.32,1345.1 1638.94,1350.58C1626.87,1359.52 1618.64,1367.27 1614.26,1373.85C1609.87,1380.42 1607.24,1387.43 1606.38,1394.89L1681.89,1394.89L1681.89,1374.37L1642.59,1374.37C1644.9,1372.11 1646.91,1370.27 1648.62,1368.87C1650.31,1367.48 1653.64,1365.07 1658.63,1361.62L1658.78,1361.52C1663.03,1358.52 1666.61,1355.65 1669.55,1352.9Z" style="fill:white;stroke:white;stroke-width:12.06px;"/>
            </g>
            <g transform="matrix(1,0,0,1,310.013,-273.828)">
                <path d="M1334.27,1623.02C1331.34,1625.77 1327.75,1628.64 1323.5,1631.63L1323.35,1631.74" style="fill:none;stroke:white;stroke-width:1px;stroke-linecap:butt;stroke-miterlimit:2;"/>
            </g>
            <path d="M1743.34,1650.14L1780.49,1650.14" style="fill:none;stroke:white;stroke-width:12.06px;"/>
        </g>
    </g>
</svg>
