<?xml version="1.0" encoding="UTF-8" standalone="no"?>
<!DOCTYPE svg PUBLIC "-//W3C//DTD SVG 1.1//EN" "http://www.w3.org/Graphics/SVG/1.1/DTD/svg11.dtd">
<svg width="100%" height="100%" viewBox="0 0 430 478" version="1.1" xmlns="http://www.w3.org/2000/svg" xmlns:xlink="http://www.w3.org/1999/xlink" xml:space="preserve" xmlns:serif="http://www.serif.com/" style="fill-rule:evenodd;clip-rule:evenodd;stroke-linecap:round;stroke-linejoin:round;stroke-miterlimit:1.5;">
    <g transform="matrix(1,0,0,1,-2859.39,-1240.32)">
        <g>
            <path d="M3008.27,1394.84C3026.56,1388.02 3051.48,1378.4 3065.51,1371.52C3087.96,1360.51 3129.6,1332.51 3129.6,1332.51C3129.6,1332.51 3177.9,1360.22 3202.98,1371.52C3227.99,1382.79 3280.07,1400.31 3280.07,1400.31C3280.07,1400.31 3285.97,1483.69 3279.14,1524C3269.55,1580.66 3247.72,1625.25 3222.48,1656.68C3197.25,1688.1 3131.45,1711.48 3131.45,1711.48C3131.45,1711.48 3074.26,1697.08 3034.47,1643.67C3013.02,1614.88 2994.41,1571.15 2987.48,1535.93C2981.21,1504.06 2984.04,1434.11 2985.21,1410.82" style="fill:none;stroke:white;stroke-width:12.06px;"/>
            <path d="M3013.49,1464.4L3013.49,1423.54L3057.15,1409.6" style="fill:none;stroke:white;stroke-width:12.06px;"/>
            <g transform="matrix(1,0,0,1,-22.6761,-18.3449)">
                <path d="M3007.88,1429.16C2997.15,1434.19 2985.2,1437 2972.62,1437C2925.97,1437 2888.1,1398.4 2888.1,1350.85C2888.1,1303.3 2925.97,1264.7 2972.62,1264.7C3019.27,1264.7 3057.15,1303.3 3057.15,1350.85C3057.15,1375.36 3047.09,1397.49 3030.95,1413.18C3024.22,1419.72 3016.44,1425.15 3007.88,1429.16ZM2957.65,1327.55C2958.46,1322.08 2959.99,1318.24 2962.25,1316.06C2964.51,1313.87 2967.46,1312.78 2971.08,1312.78C2974.59,1312.78 2977.36,1313.78 2979.37,1315.79C2981.38,1317.8 2982.39,1320.49 2982.39,1323.86C2982.39,1327.38 2981.04,1330.42 2978.35,1332.98C2975.66,1335.55 2972.31,1336.83 2968.28,1336.83C2967.33,1336.83 2966,1336.7 2964.29,1336.45L2962.71,1358.39C2966.93,1357.18 2970.24,1356.58 2972.66,1356.58C2977.18,1356.58 2980.76,1357.99 2983.4,1360.8C2986.04,1363.62 2987.36,1367.59 2987.36,1372.72C2987.36,1377.74 2985.99,1381.77 2983.25,1384.78C2980.51,1387.8 2977.08,1389.31 2972.96,1389.31C2969.04,1389.31 2965.81,1388.11 2963.27,1385.72C2960.73,1383.34 2958.86,1379.05 2957.65,1372.87L2926.97,1376.94C2928.98,1383.83 2931.86,1389.54 2935.6,1394.09C2939.35,1398.64 2944.12,1402.1 2949.93,1404.46C2955.73,1406.82 2963.66,1408 2973.71,1408C2984.02,1408 2992.34,1406.41 2998.67,1403.22C3005,1400.02 3009.86,1395.48 3013.22,1389.57C3016.59,1383.66 3018.27,1377.49 3018.27,1371.06C3018.27,1365.93 3017.26,1361.52 3015.22,1357.83C3013.18,1354.13 3010.33,1351.15 3006.66,1348.89C3004.4,1347.48 3001.13,1346.25 2996.86,1345.2C3002.14,1342.28 3006.09,1338.89 3008.7,1335.02C3011.31,1331.15 3012.62,1326.83 3012.62,1322.05C3012.62,1313.91 3009.4,1307.15 3002.97,1301.77C2996.53,1296.39 2986.1,1293.7 2971.68,1293.7C2959.11,1293.7 2949.4,1296.16 2942.54,1301.09C2935.68,1306.02 2931.04,1313.1 2928.63,1322.35L2957.65,1327.55Z" style="fill:white;stroke:white;stroke-width:12.06px;"/>
            </g>
            <path d="M3222.48,1595.37C3222.48,1595.37 3207.96,1620.56 3200.06,1630.78C3192.73,1640.27 3175.11,1656.68 3175.11,1656.68" style="fill:none;stroke:white;stroke-width:12.06px;"/>
            <path d="M3108.23,1544.29L3188.12,1456.97C3188.12,1456.97 3201.12,1442.11 3211.34,1447.68C3221.55,1453.26 3232.7,1460.45 3222.48,1478.22C3212.26,1495.99 3116.59,1595.37 3116.59,1595.37C3116.59,1595.37 3107.31,1609.31 3096.16,1595.37C3085.01,1581.44 3035.32,1533.14 3035.32,1533.14C3035.32,1533.14 3029.82,1511.04 3045.07,1503.42C3046.93,1502.49 3056.22,1495.99 3068.29,1501.56C3080.37,1507.13 3108.23,1544.29 3108.23,1544.29Z" style="fill:none;stroke:white;stroke-width:12.06px;"/>
        </g>
    </g>
</svg>
