<?xml version="1.0" encoding="UTF-8" standalone="no"?>
<!DOCTYPE svg PUBLIC "-//W3C//DTD SVG 1.1//EN" "http://www.w3.org/Graphics/SVG/1.1/DTD/svg11.dtd">
<svg width="100%" height="100%" viewBox="0 0 385 389" version="1.1" xmlns="http://www.w3.org/2000/svg" xmlns:xlink="http://www.w3.org/1999/xlink" xml:space="preserve" xmlns:serif="http://www.serif.com/" style="fill-rule:evenodd;clip-rule:evenodd;stroke-linecap:round;stroke-linejoin:round;stroke-miterlimit:1.5;">
    <g transform="matrix(1,0,0,1,-145.868,-123.949)">
        <g>
            <g transform="matrix(0.937827,0,0,1,29.9198,0)">
                <g transform="matrix(1.0396,0,0,1,-21.5268,-11.1518)">
                    <ellipse cx="487.234" cy="399.3" rx="37.545" ry="14.497" style="fill:none;stroke:white;stroke-width:12.21px;"/>
                </g>
                <g transform="matrix(1.05515,0,0,1,-29.4688,92.1885)">
                    <path d="M524.815,403.077C519.929,409.193 504.361,413.797 487.234,413.797C469.329,413.797 454.334,408.946 450.589,402.466" style="fill:none;stroke:white;stroke-width:12.12px;"/>
                </g>
                <g transform="matrix(1.06083,0,0,1.06083,-32.0577,-8.6776)">
                    <path d="M524.446,401.235C523.04,405.3 517.264,408.834 509.006,411.109C502.863,412.801 495.348,413.797 487.234,413.797C478.994,413.797 471.37,412.77 465.176,411.029C457.944,408.997 452.661,405.993 450.618,402.515" style="fill:none;stroke:white;stroke-width:11.73px;"/>
                </g>
                <g transform="matrix(1.06083,0,0,1.06083,-32.3622,16.293)">
                    <path d="M524.733,398.582C524.764,398.82 524.779,399.059 524.779,399.3C524.779,399.54 524.764,399.779 524.733,400.017C524.133,404.767 517.6,408.92 507.937,411.393C502.001,412.912 494.883,413.797 487.234,413.797C479.952,413.797 473.151,412.995 467.392,411.606C459.362,409.671 453.359,406.596 450.905,402.97" style="fill:none;stroke:white;stroke-width:11.73px;"/>
                </g>
                <g transform="matrix(1.06083,0,0,1.06083,-31.4487,42.1772)">
                    <path d="M523.872,402.477C521.513,406.544 514.725,409.967 505.569,411.951C500.145,413.127 493.891,413.797 487.234,413.797C480.408,413.797 474.005,413.092 468.487,411.86C458.673,409.67 451.66,405.815 450.044,401.298" style="fill:none;stroke:white;stroke-width:11.73px;"/>
                </g>
                <g transform="matrix(1,0,0,1.03242,0,-12.584)">
                    <path d="M445.972,388.148L445.972,491.31" style="fill:none;stroke:white;stroke-width:12.23px;"/>
                </g>
                <g transform="matrix(1,0,0,0.997771,1,5.85278)">
                    <path d="M523.292,382.572L523.292,490.506" style="fill:none;stroke:white;stroke-width:12.46px;"/>
                </g>
            </g>
            <g transform="matrix(0.93161,0,0,1,-61.3431,-4.6466e-06)">
                <g>
                    <g transform="matrix(1.05702,0,0,1,-29.3571,-11.1518)">
                        <path d="M523.784,402.625C519.888,409.026 504.992,413.797 487.234,413.797C466.513,413.797 449.69,407.301 449.69,399.3M511.04,388.092C511.077,388.104 511.114,388.116 511.151,388.127" style="fill:none;stroke:white;stroke-width:12.15px;"/>
                    </g>
                    <g transform="matrix(1.0605,0,0,1,-31.7077,-33.3209)">
                        <ellipse cx="487.234" cy="399.3" rx="37.545" ry="14.497" style="fill:none;stroke:white;stroke-width:12.13px;"/>
                    </g>
                    <g transform="matrix(1.05515,0,0,1,-29.4688,92.1885)">
                        <path d="M524.815,403.077C519.929,409.193 504.361,413.797 487.234,413.797C469.329,413.797 454.334,408.946 450.589,402.466" style="fill:none;stroke:white;stroke-width:12.16px;"/>
                    </g>
                    <g transform="matrix(1.06083,0,0,1.06083,-32.0577,-8.6776)">
                        <path d="M524.446,401.235C523.04,405.3 517.264,408.834 509.006,411.109C502.863,412.801 495.348,413.797 487.234,413.797C478.994,413.797 471.37,412.77 465.176,411.029C457.944,408.997 452.661,405.993 450.618,402.515" style="fill:none;stroke:white;stroke-width:11.76px;"/>
                    </g>
                    <g transform="matrix(1.06083,0,0,1.06083,-32.3622,16.293)">
                        <path d="M524.733,398.582C524.764,398.82 524.779,399.059 524.779,399.3C524.779,399.54 524.764,399.779 524.733,400.017C524.133,404.767 517.6,408.92 507.937,411.393C502.001,412.912 494.883,413.797 487.234,413.797C479.952,413.797 473.151,412.995 467.392,411.606C459.362,409.671 453.359,406.596 450.905,402.97" style="fill:none;stroke:white;stroke-width:11.76px;"/>
                    </g>
                    <g transform="matrix(1.06083,0,0,1.06083,-31.4487,42.1772)">
                        <path d="M523.872,402.477C521.513,406.544 514.725,409.967 505.569,411.951C500.145,413.127 493.891,413.797 487.234,413.797C480.408,413.797 474.005,413.092 468.487,411.86C458.673,409.67 451.66,405.815 450.044,401.298" style="fill:none;stroke:white;stroke-width:11.76px;"/>
                    </g>
                    <g transform="matrix(1,0,0,1.27093,0,-129.766)">
                        <path d="M445.972,392.327L445.972,491.31" style="fill:none;stroke:white;stroke-width:10.82px;"/>
                    </g>
                    <g transform="matrix(1,0,0,1.21219,1,-99.3224)">
                        <path d="M523.292,385.801L523.292,490.506" style="fill:none;stroke:white;stroke-width:11.16px;"/>
                    </g>
                </g>
            </g>
            <g transform="matrix(0.93161,0,0,1,-156.597,-0.679773)">
                <g>
                    <g>
                        <g transform="matrix(1.05702,0,0,1,-29.3571,-11.1518)">
                            <path d="M523.784,402.625C519.888,409.026 504.992,413.797 487.234,413.797C466.513,413.797 449.69,407.301 449.69,399.3M511.04,388.092C511.077,388.104 511.114,388.116 511.151,388.127" style="fill:none;stroke:white;stroke-width:12.15px;"/>
                        </g>
                        <g transform="matrix(1.0605,0,0,1,-31.7077,-33.3209)">
                            <path d="M524.281,401.664C522.82,405.096 518.234,408.124 511.689,410.296C505.117,412.478 496.572,413.797 487.234,413.797C469.062,413.797 453.888,408.801 450.429,402.175" style="fill:none;stroke:white;stroke-width:12.13px;"/>
                        </g>
                        <g transform="matrix(1.0605,0,0,0.890525,-31.1847,-14.8253)">
                            <path d="M523.788,402.62C521.018,407.177 512.674,410.908 501.691,412.682C497.24,413.4 492.356,413.797 487.234,413.797C481.911,413.797 476.846,413.368 472.256,412.596C460.24,410.572 451.489,406.191 449.936,400.969C449.773,400.421 449.69,399.864 449.69,399.3C449.69,398.735 449.773,398.178 449.936,397.631" style="fill:none;stroke:white;stroke-width:12.82px;"/>
                        </g>
                        <g transform="matrix(1.07562,0,0,0.878361,-38.0761,-33.5317)">
                            <path d="M522.829,403.919C517.829,409.658 503.774,413.797 487.234,413.797C468.197,413.797 452.45,408.314 450.016,401.218C449.801,400.59 449.69,399.95 449.69,399.3C449.69,393.664 458.034,388.776 470.208,386.377M504.568,386.439C513.105,388.159 519.719,391.11 522.829,394.68" style="fill:none;stroke:white;stroke-width:12.8px;"/>
                        </g>
                        <g transform="matrix(1.07341,0,0,1,168.093,0.679773)">
                            <path d="M355.786,269.469C355.863,269.538 355.938,269.61 356.013,269.684L373.699,287.371C376.053,289.725 376.053,293.546 373.699,295.9C371.346,298.253 367.524,298.253 365.171,295.9L347.484,278.213C347.41,278.139 347.338,278.063 347.268,277.986C347.191,277.917 347.116,277.845 347.042,277.771L342.62,273.349C340.266,270.996 340.266,267.174 342.62,264.821C344.974,262.467 348.795,262.467 351.149,264.821L355.57,269.242C355.645,269.316 355.716,269.392 355.786,269.469ZM401.728,312.733C401.811,312.639 401.897,312.548 401.987,312.458L412.649,301.796C412.739,301.706 412.83,301.62 412.924,301.537C413.007,301.444 413.093,301.352 413.182,301.262L423.845,290.6C423.935,290.51 424.026,290.424 424.12,290.341C424.203,290.248 424.289,290.156 424.378,290.067L429.71,284.735C432.065,282.38 435.883,282.38 438.238,284.735L443.44,289.937C443.527,290.024 443.611,290.114 443.692,290.205C443.783,290.286 443.873,290.37 443.96,290.457L454.363,300.86C454.451,300.948 454.535,301.037 454.616,301.128C454.707,301.209 454.796,301.293 454.883,301.38L465.287,311.784C465.374,311.871 465.458,311.96 465.539,312.051C465.63,312.132 465.719,312.216 465.807,312.304L476.21,322.707C476.297,322.794 476.381,322.884 476.462,322.975C476.553,323.056 476.643,323.14 476.73,323.227L481.932,328.429C484.285,330.782 484.285,334.604 481.932,336.957C479.578,339.311 475.757,339.311 473.403,336.957L468.201,331.756C468.114,331.668 468.03,331.579 467.949,331.488C467.858,331.407 467.769,331.323 467.681,331.236L457.278,320.832C457.191,320.745 457.107,320.656 457.026,320.565C456.935,320.484 456.845,320.4 456.758,320.312L446.355,309.909C446.267,309.822 446.183,309.732 446.102,309.641C446.011,309.56 445.922,309.476 445.835,309.389L435.431,298.986C435.344,298.898 435.26,298.809 435.179,298.718C435.088,298.637 434.998,298.553 434.911,298.466C434.911,298.466 433.974,297.528 433.974,297.528L432.907,298.595C432.817,298.685 432.726,298.771 432.632,298.854C432.549,298.947 432.463,299.039 432.374,299.128L421.711,309.791C421.622,309.881 421.53,309.967 421.436,310.049C421.354,310.143 421.268,310.235 421.178,310.324L410.515,320.987C410.426,321.076 410.334,321.163 410.241,321.245C410.158,321.339 410.072,321.431 409.982,321.52L404.651,326.851C402.296,329.207 398.477,329.207 396.122,326.851L391.701,322.43C389.347,320.076 389.347,316.255 391.701,313.901C394.054,311.548 397.876,311.548 400.229,313.901C400.229,313.901 400.387,314.058 400.386,314.058L401.453,312.991C401.543,312.902 401.635,312.816 401.728,312.733Z" style="fill:white;"/>
                        </g>
                        <g transform="matrix(1.07341,0,0,1,168.093,0.679773)">
                            <path d="M330.834,209.638L398.009,276.813L430.704,244.117L508.283,330.018" style="fill:none;stroke:white;stroke-width:12.06px;"/>
                        </g>
                        <g transform="matrix(1.07341,0,0,1,168.093,0.679773)">
                            <path d="M496.096,341.61L524.036,345.177L521.658,314.264" style="fill:none;stroke:white;stroke-width:12.06px;"/>
                        </g>
                        <g transform="matrix(1.05515,0,0,1,-29.4688,92.1885)">
                            <path d="M524.815,403.077C519.929,409.193 504.361,413.797 487.234,413.797C469.329,413.797 454.334,408.946 450.589,402.466" style="fill:none;stroke:white;stroke-width:12.16px;"/>
                        </g>
                        <g transform="matrix(1.06083,0,0,1.06083,-32.0577,-8.6776)">
                            <path d="M524.446,401.235C523.04,405.3 517.264,408.834 509.006,411.109C502.863,412.801 495.348,413.797 487.234,413.797C478.994,413.797 471.37,412.77 465.176,411.029C457.944,408.997 452.661,405.993 450.618,402.515" style="fill:none;stroke:white;stroke-width:11.76px;"/>
                        </g>
                        <g transform="matrix(1.06083,0,0,1.06083,-32.3622,16.293)">
                            <path d="M524.733,398.582C524.764,398.82 524.779,399.059 524.779,399.3C524.779,399.54 524.764,399.779 524.733,400.017C524.133,404.767 517.6,408.92 507.937,411.393C502.001,412.912 494.883,413.797 487.234,413.797C479.952,413.797 473.151,412.995 467.392,411.606C459.362,409.671 453.359,406.596 450.905,402.97" style="fill:none;stroke:white;stroke-width:11.76px;"/>
                        </g>
                        <g transform="matrix(1.06083,0,0,1.06083,-31.4487,42.1772)">
                            <path d="M523.872,402.477C521.513,406.544 514.725,409.967 505.569,411.951C500.145,413.127 493.891,413.797 487.234,413.797C480.408,413.797 474.005,413.092 468.487,411.86C458.673,409.67 451.66,405.815 450.044,401.298" style="fill:none;stroke:white;stroke-width:11.76px;"/>
                        </g>
                        <g transform="matrix(1,0,0,1.79763,0,-388.537)">
                            <path d="M445.972,392.327L445.972,491.31" style="fill:none;stroke:white;stroke-width:8.42px;"/>
                        </g>
                        <g transform="matrix(1,3.645e-16,5.07934e-16,1.74452,1,-360.431)">
                            <path d="M523.292,386.107L523.292,490.506" style="fill:none;stroke:white;stroke-width:8.62px;"/>
                        </g>
                    </g>
                    <g transform="matrix(1.07341,0,0,1,163.853,0.961926)">
                        <path d="M301.446,232.186C320.078,232.855 335.021,250.036 335.021,271.102C335.021,285.585 327.958,298.231 317.49,304.939C312.425,308.184 306.562,310.039 300.316,310.039C294.036,310.039 288.144,308.164 283.059,304.885C273.046,298.428 266.169,286.529 265.644,272.796" style="fill:none;stroke:white;stroke-width:12.06px;"/>
                    </g>
                </g>
            </g>
            <g transform="matrix(1,0,0,1,-36.2626,-8.32255)">
                <path d="M297.956,281.401C287.598,286.825 275.832,289.891 263.362,289.891C221.857,289.891 188.161,255.929 188.161,214.097C188.161,172.264 221.857,138.302 263.362,138.302C304.866,138.302 338.562,172.264 338.562,214.097C338.562,223.49 336.863,232.486 333.758,240.79C333.383,240.777 333.007,240.77 332.629,240.77C313.475,240.77 297.924,258.217 297.924,279.707C297.924,280.275 297.935,280.839 297.956,281.401ZM259.268,241.457L259.268,257.79L280.429,257.79L280.429,241.457L291.397,241.457L291.397,222.621L280.429,222.621L280.429,168.913L259.268,168.913L215.038,221.488L215.038,241.457L259.268,241.457ZM259.268,222.621L235.898,222.621L259.268,195.12L259.268,222.621Z" style="fill:white;stroke:white;stroke-width:12.06px;"/>
            </g>
        </g>
    </g>
</svg>
