<?xml version="1.0" encoding="UTF-8" standalone="no"?>
<!DOCTYPE svg PUBLIC "-//W3C//DTD SVG 1.1//EN" "http://www.w3.org/Graphics/SVG/1.1/DTD/svg11.dtd">
<svg width="100%" height="100%" viewBox="0 0 385 450" version="1.1" xmlns="http://www.w3.org/2000/svg" xmlns:xlink="http://www.w3.org/1999/xlink" xml:space="preserve" xmlns:serif="http://www.serif.com/" style="fill-rule:evenodd;clip-rule:evenodd;stroke-linecap:round;stroke-linejoin:round;stroke-miterlimit:1.5;">
    <g transform="matrix(1,0,0,1,-1538.77,-129.528)">
        <g>
            <path d="M1705.39,234.668L1725.46,234.668L1725.46,287.967L1705.16,287.967L1705.39,234.668Z" style="fill:none;stroke:white;stroke-width:12.06px;"/>
            <path d="M1651.86,278.201L1651.86,508.03M1651.86,549.664L1917.27,549.664L1915.04,261.317L1668.41,261.317" style="fill:none;stroke:white;stroke-width:12.06px;"/>
            <path d="M1627.32,508.03L1879.36,508.03C1879.36,508.03 1885.71,527.77 1891.39,545.439C1892.44,548.682 1895.54,550.812 1898.94,550.622C1902.34,550.432 1905.19,547.971 1905.86,544.632C1908.61,531.071 1911.32,517.695 1911.32,517.695L1911.32,549.664L1651.86,549.664C1651.86,549.664 1648.19,548.248 1643.91,546.594C1635.79,543.454 1630.12,536.012 1629.26,527.346C1628.34,518.216 1627.32,508.03 1627.32,508.03Z" style="fill:none;stroke:white;stroke-width:12.06px;"/>
            <g transform="matrix(1,0,0,1,-10.1518,-0.743445)">
                <ellipse cx="1709.1" cy="381.271" rx="16.356" ry="17.471" style="fill:none;stroke:rgb(255,165,0);stroke-width:12.06px;"/>
            </g>
            <g transform="matrix(1,0,0,1,43.8639,-0.743445)">
                <ellipse cx="1709.1" cy="381.271" rx="16.356" ry="17.471" style="fill:none;stroke:rgb(255,165,0);stroke-width:12.06px;"/>
            </g>
            <g transform="matrix(1,0,0,1,45.3508,66.911)">
                <ellipse cx="1709.1" cy="381.271" rx="16.356" ry="17.471" style="fill:none;stroke:rgb(255,165,0);stroke-width:12.06px;"/>
            </g>
            <g transform="matrix(1,0,0,1,98.5079,0)">
                <ellipse cx="1709.1" cy="381.271" rx="16.356" ry="17.471" style="fill:none;stroke:rgb(255,165,0);stroke-width:12.06px;"/>
            </g>
            <g transform="matrix(1,0,0,1,97.7645,67.6545)">
                <ellipse cx="1709.1" cy="381.271" rx="16.356" ry="17.471" style="fill:none;stroke:rgb(255,165,0);stroke-width:12.06px;"/>
            </g>
            <g transform="matrix(1,0,0,1,150.55,-0.743445)">
                <ellipse cx="1709.1" cy="381.271" rx="16.356" ry="17.471" style="fill:none;stroke:rgb(255,165,0);stroke-width:12.06px;"/>
            </g>
            <g transform="matrix(1,0,0,1,149.806,66.1676)">
                <ellipse cx="1709.1" cy="381.271" rx="16.356" ry="17.471" style="fill:none;stroke:rgb(255,165,0);stroke-width:12.06px;"/>
            </g>
            <path d="M1651.86,287.033C1642.99,290.515 1633.33,292.428 1623.24,292.428C1579.95,292.428 1544.8,257.282 1544.8,213.993C1544.8,170.704 1579.95,135.559 1623.24,135.559C1666.52,135.559 1701.67,170.704 1701.67,213.993C1701.67,231.763 1695.75,248.16 1685.77,261.317C1677.11,272.736 1665.4,281.715 1651.86,287.033ZM1668.41,261.317C1672.18,254.179 1674.06,246.746 1674.06,239.021C1674.06,227.82 1670.26,218.533 1662.67,211.159C1655.07,203.784 1645.17,200.097 1632.97,200.097C1629.37,200.097 1625.73,200.541 1622.04,201.428C1618.35,202.315 1614.62,203.646 1610.85,205.42L1613.76,187.123L1668.24,187.123L1668.24,160.093L1587.81,160.093L1577.08,225.63L1605.94,229.789C1608.66,226.739 1611.16,224.632 1613.43,223.468C1616.48,221.86 1619.64,221.056 1622.91,221.056C1628.07,221.056 1632.2,222.747 1635.3,226.129C1638.41,229.512 1639.96,234.834 1639.96,242.098C1639.96,249.195 1638.42,254.532 1635.35,258.108C1632.27,261.684 1628.37,263.473 1623.66,263.473C1619.44,263.473 1615.81,262.045 1612.76,259.189C1609.72,256.334 1607.77,252.161 1606.94,246.672L1572.68,250.415C1574.34,256.126 1576.42,260.894 1578.91,264.72C1581.41,268.546 1584.67,271.97 1588.69,274.992C1592.71,278.013 1597.59,280.287 1603.32,281.811C1609.06,283.336 1615.95,284.099 1623.99,284.099C1635.19,284.099 1644.38,282.186 1651.56,278.36C1651.66,278.307 1651.76,278.254 1651.86,278.201C1658.89,274.381 1664.34,268.89 1668.2,261.726C1668.27,261.59 1668.34,261.454 1668.41,261.317Z" style="fill:white;stroke:white;stroke-width:12.06px;"/>
            <path d="M1835.49,234.668L1857.8,234.668L1857.8,287.967L1836.03,287.967L1835.49,234.668Z" style="fill:none;stroke:white;stroke-width:12.06px;"/>
        </g>
    </g>
</svg>
