<?xml version="1.0" encoding="UTF-8" standalone="no"?>
<!DOCTYPE svg PUBLIC "-//W3C//DTD SVG 1.1//EN" "http://www.w3.org/Graphics/SVG/1.1/DTD/svg11.dtd">
<svg width="100%" height="100%" viewBox="0 0 373 407" version="1.1" xmlns="http://www.w3.org/2000/svg" xmlns:xlink="http://www.w3.org/1999/xlink" xml:space="preserve" xmlns:serif="http://www.serif.com/" style="fill-rule:evenodd;clip-rule:evenodd;stroke-linecap:round;stroke-linejoin:round;stroke-miterlimit:1.5;">
    <g transform="matrix(1,0,0,1,-2933.62,-121.353)">
        <g>
            <path d="M3119.59,191.444L3087.45,191.418C3087.45,191.418 3078.2,190.444 3078.68,205.297C3078.82,209.596 3079.76,212.529 3081.02,214.525" style="fill:none;stroke:white;stroke-width:12.06px;"/>
            <path d="M3081.02,214.525C3084.11,219.427 3089.15,218.689 3089.15,218.689L3251.56,218.933C3251.56,218.933 3261.3,214.793 3261.06,204.567C3260.82,194.34 3253.02,191.739 3253.02,191.739L3137.12,191.418" style="fill:none;stroke:white;stroke-width:12.06px;"/>
            <path d="M3092.56,219.603C3092.56,219.603 3089.15,296.647 3092.81,320.835C3095.24,336.97 3105.91,353.477 3114.48,364.729C3122.14,374.796 3132.74,381.774 3144.18,388.348C3155.63,394.923 3176.08,396.018 3190.45,390.783C3204.81,385.548 3224.77,363.949 3230.38,356.938C3235.25,350.85 3244.22,338.097 3245.47,326.988C3248.07,303.987 3245.96,218.933 3245.96,218.933L3092.56,219.603Z" style="fill:none;stroke:white;stroke-width:12.06px;"/>
            <path d="M3246.31,235.676C3246.31,235.676 3285.63,232.512 3294.66,235.191C3300.27,236.855 3300.15,245.906 3300.51,251.748C3301.03,260.352 3297.83,286.811 3297.83,286.811C3297.83,286.811 3291.22,314.304 3282.49,324.796C3270.96,338.635 3257.61,358.764 3228.67,369.843C3225.27,371.147 3218.45,373.739 3218.45,373.739L3246.77,329.423L3256.43,321.144C3256.43,321.144 3268.12,306.25 3271.77,298.743C3275.21,291.675 3277.33,283.24 3278.35,276.098C3279.3,269.426 3277.86,255.888 3277.86,255.888L3246.77,256.618L3246.31,235.676Z" style="fill:none;stroke:white;stroke-width:12.06px;"/>
            <path d="M3102.06,489.033C3101.41,490.036 3096.47,499.68 3096.7,504.86C3096.94,510.42 3101.33,521.905 3101.33,521.905L3238.41,521.418C3238.41,521.418 3243.61,508.716 3243.28,503.156C3242.96,497.644 3236.47,488.059 3236.47,488.059C3236.47,488.059 3103.8,486.352 3102.06,489.033" style="fill:none;stroke:white;stroke-width:12.06px;"/>
            <path d="M3147.59,391.635C3147.59,391.635 3151.33,402.96 3153.93,410.814C3155.52,415.638 3155.82,420.795 3154.8,425.772C3152.86,435.276 3149.78,450.318 3149.78,450.318" style="fill:none;stroke:white;stroke-width:12.06px;"/>
            <path d="M3191.42,391.635C3191.42,391.635 3187.34,403.348 3184.33,411.973C3182.29,417.841 3182.05,424.186 3183.64,430.192C3184.42,433.136 3185.09,435.647 3185.09,435.647" style="fill:none;stroke:white;stroke-width:12.06px;"/>
            <path d="M3185.09,435.647L3188.99,450.318" style="fill:none;stroke:white;stroke-width:12.06px;"/>
            <path d="M3155.39,286.507L3135.9,288.455L3147.59,311.555L3147.59,340.563L3168.94,326.196L3188.99,339.832L3188.99,309.152L3206.76,288.211L3182.6,285.046L3168.94,263.862L3155.39,286.507Z" style="fill:none;stroke:rgb(255,165,0);stroke-width:12.06px;"/>
            <g transform="matrix(1,0,0,1,-9.98326,-10.4702)">
                <path d="M3049.43,263.243C3039.73,268.708 3028.53,271.827 3016.62,271.827C2979.65,271.827 2949.63,241.812 2949.63,204.841C2949.63,167.87 2979.65,137.854 3016.62,137.854C3053.59,137.854 3083.6,167.87 3083.6,204.841C3083.6,219.98 3078.57,233.952 3070.09,245.176C3064.53,252.525 3057.5,258.696 3049.43,263.243ZM3041.96,189.41C3040.93,185.931 3039.42,183.042 3037.45,180.743C3035.47,178.443 3032.99,176.696 3029.99,175.502C3027,174.308 3022.93,173.711 3017.77,173.711C3009.04,173.711 3002.22,176.431 2997.29,181.87C2992.37,187.31 2989.91,195.881 2989.91,207.586C2989.91,215.575 2991.08,221.995 2993.42,226.845C2995.77,231.694 2998.9,235.225 3002.82,237.436C3006.74,239.647 3011.94,240.753 3018.43,240.753C3023.83,240.753 3028.31,239.846 3031.9,238.033C3035.48,236.22 3038.28,233.544 3040.3,230.007C3042.32,226.469 3043.33,222.562 3043.33,218.288C3043.33,211.949 3041.33,206.716 3037.34,202.589C3033.34,198.461 3028.45,196.397 3022.68,196.397C3019.7,196.397 3017.07,196.921 3014.8,197.967C3012.53,199.014 3010.32,200.628 3008.17,202.81C3008.73,195.852 3009.6,191.312 3010.78,189.189C3012.4,186.241 3014.67,184.767 3017.59,184.767C3019.21,184.767 3020.58,185.283 3021.68,186.315C3022.79,187.347 3023.58,189.115 3024.05,191.621L3041.96,189.41ZM3008.79,218.288C3008.79,214.838 3009.64,212.185 3011.33,210.328C3013.03,208.47 3015.13,207.542 3017.63,207.542C3020.08,207.542 3022.13,208.5 3023.78,210.416C3025.43,212.332 3026.26,215.118 3026.26,218.774C3026.26,222.341 3025.46,225.024 3023.87,226.823C3022.28,228.621 3020.3,229.52 3017.94,229.52C3015.38,229.52 3013.21,228.525 3011.44,226.535C3009.67,224.545 3008.79,221.796 3008.79,218.288Z" style="fill:white;stroke:white;stroke-width:12.06px;"/>
            </g>
            <path d="M3123.24,467.606C3125.44,462.046 3130.52,455.751 3136.63,454.7C3149.62,452.468 3187.52,451.981 3201.16,454.213C3208.45,455.407 3215.57,462.452 3218.45,468.093C3221.33,473.734 3218.45,488.059 3218.45,488.059L3123.43,488.059C3123.43,488.059 3121.04,473.165 3123.24,467.606Z" style="fill:none;stroke:white;stroke-width:12.06px;"/>
            <path d="M3090.78,235.191C3090.78,235.191 3059.73,234.014 3050.92,235.191C3046.88,235.731 3042.49,238.481 3040.94,242.252C3038.99,247 3039.24,263.679 3039.24,263.679C3039.24,263.679 3041.61,282.863 3044.11,292.168C3046.66,301.705 3050.27,312.216 3054.58,320.9C3058.71,329.252 3063.83,337.499 3069.92,344.276C3076.01,351.053 3084.46,357.262 3091.12,361.564C3096.88,365.288 3109.85,370.086 3109.85,370.086L3117.15,370.33L3095.96,338.189L3085.01,322.118C3085.01,322.118 3074.54,311.039 3070.89,304.465C3067.24,297.89 3063.1,282.672 3063.1,282.672L3060.18,266.114C3060.18,266.114 3057.94,258.321 3060.66,257.836C3066.35,256.821 3091.27,260.027 3091.27,260.027L3090.78,235.191Z" style="fill:none;stroke:white;stroke-width:12.06px;"/>
        </g>
    </g>
</svg>
