<?xml version="1.0" encoding="UTF-8" standalone="no"?>
<!DOCTYPE svg PUBLIC "-//W3C//DTD SVG 1.1//EN" "http://www.w3.org/Graphics/SVG/1.1/DTD/svg11.dtd">
<svg width="100%" height="100%" viewBox="0 0 965 874" version="1.1" xmlns="http://www.w3.org/2000/svg" xmlns:xlink="http://www.w3.org/1999/xlink" xml:space="preserve" xmlns:serif="http://www.serif.com/" style="fill-rule:evenodd;clip-rule:evenodd;stroke-linecap:round;stroke-linejoin:round;stroke-miterlimit:1.5;">
    <g transform="matrix(1,0,0,1,-978.246,-894.903)">
        <g transform="matrix(1.26832,0,0,1.26832,-543.214,-410.823)">
            <path d="M1728.83,1275.23C1724.86,1268.89 1726.78,1260.52 1733.12,1256.55C1739.47,1252.58 1747.84,1254.5 1751.81,1260.84C1754.71,1265.47 1757.48,1270.18 1760.13,1274.98C1763.74,1281.53 1761.36,1289.78 1754.81,1293.4C1748.26,1297.01 1740.01,1294.63 1736.39,1288.08C1733.99,1283.72 1731.46,1279.44 1728.83,1275.23ZM1766,1372.08C1764.71,1364.71 1769.65,1357.68 1777.02,1356.39C1784.39,1355.1 1791.42,1360.04 1792.7,1367.41C1795.64,1384.2 1797.17,1401.47 1797.17,1419.09C1797.17,1423.67 1797.07,1428.22 1796.86,1432.75C1796.52,1440.22 1790.18,1446.02 1782.71,1445.68C1775.23,1445.34 1769.44,1439 1769.78,1431.53C1769.96,1427.4 1770.06,1423.26 1770.06,1419.09C1770.06,1403.06 1768.67,1387.35 1766,1372.08ZM1751.21,1518.64C1753.96,1511.68 1761.84,1508.26 1768.8,1511.01C1775.76,1513.75 1779.18,1521.63 1776.43,1528.59C1772.4,1538.81 1767.82,1548.76 1762.73,1558.39C1759.24,1565.01 1751.03,1567.54 1744.41,1564.04C1737.8,1560.55 1735.27,1552.34 1738.76,1545.73C1743.39,1536.97 1747.55,1527.93 1751.21,1518.64ZM1684.8,1616.65C1690.24,1611.51 1698.83,1611.76 1703.96,1617.2C1709.1,1622.64 1708.85,1631.22 1703.41,1636.36C1687.54,1651.34 1670.04,1664.61 1651.19,1675.85C1644.76,1679.69 1636.43,1677.58 1632.6,1671.16C1628.77,1664.73 1630.87,1656.41 1637.29,1652.57C1654.44,1642.34 1670.36,1630.28 1684.8,1616.65ZM1554.34,1685C1561.67,1683.46 1568.86,1688.16 1570.39,1695.48C1571.93,1702.8 1567.23,1709.99 1559.91,1711.53C1549.3,1713.76 1538.48,1715.42 1527.49,1716.48C1520.04,1717.2 1513.41,1711.75 1512.69,1704.3C1511.96,1696.85 1517.42,1690.22 1524.87,1689.5C1534.86,1688.53 1544.7,1687.02 1554.34,1685ZM1435.95,1683.56C1443.23,1685.27 1447.75,1692.58 1446.04,1699.86C1444.33,1707.14 1437.02,1711.66 1429.74,1709.95C1408.17,1704.87 1387.51,1697.46 1368.02,1687.98C1361.29,1684.71 1358.49,1676.6 1361.76,1669.87C1365.03,1663.14 1373.15,1660.33 1379.88,1663.6C1397.58,1672.21 1416.36,1678.94 1435.95,1683.56ZM1307.19,1612.04C1312.51,1617.31 1312.55,1625.9 1307.28,1631.22C1302.02,1636.53 1293.43,1636.57 1288.11,1631.3C1280.35,1623.61 1273,1615.49 1266.12,1606.99C1261.41,1601.18 1262.3,1592.64 1268.12,1587.93C1273.93,1583.22 1282.47,1584.11 1287.18,1589.93C1293.45,1597.66 1300.13,1605.05 1307.19,1612.04ZM1243.19,1512.46C1245.76,1519.48 1242.15,1527.28 1235.12,1529.85C1228.1,1532.42 1220.3,1528.81 1217.73,1521.79C1210.3,1501.52 1205.01,1480.22 1202.12,1458.17C1201.15,1450.75 1206.38,1443.94 1213.8,1442.97C1221.22,1442 1228.03,1447.23 1229,1454.65C1231.63,1474.69 1236.44,1494.04 1243.19,1512.46ZM1231.97,1365.58C1230.51,1372.91 1223.36,1377.68 1216.02,1376.21C1208.68,1374.74 1203.92,1367.59 1205.39,1360.26C1207.55,1349.45 1210.3,1338.85 1213.59,1328.5C1215.86,1321.37 1223.49,1317.42 1230.62,1319.69C1237.75,1321.96 1241.7,1329.59 1239.43,1336.72C1236.43,1346.12 1233.94,1355.76 1231.97,1365.58ZM1280.06,1257.44C1275.6,1263.45 1267.11,1264.71 1261.1,1260.25C1255.09,1255.8 1253.83,1247.3 1258.29,1241.29C1271.34,1223.7 1286.27,1207.6 1302.8,1193.28C1308.45,1188.37 1317.02,1188.98 1321.92,1194.64C1326.82,1200.29 1326.21,1208.86 1320.56,1213.76C1305.52,1226.79 1291.93,1241.44 1280.06,1257.44ZM1396.51,1167.18C1389.58,1170 1381.66,1166.65 1378.85,1159.71C1376.04,1152.78 1379.39,1144.87 1386.33,1142.06C1396.41,1137.97 1406.77,1134.42 1417.36,1131.44C1424.57,1129.41 1432.06,1133.61 1434.09,1140.81C1436.11,1148.02 1431.91,1155.51 1424.71,1157.54C1415.08,1160.24 1405.67,1163.47 1396.51,1167.18ZM1513.29,1147.82C1505.82,1147.41 1500.08,1141.02 1500.48,1133.55C1500.89,1126.08 1507.28,1120.34 1514.75,1120.75C1537.02,1121.95 1558.65,1125.6 1579.37,1131.43C1586.57,1133.46 1590.77,1140.95 1588.75,1148.15C1586.72,1155.35 1579.23,1159.56 1572.02,1157.53C1553.19,1152.23 1533.53,1148.91 1513.29,1147.82ZM1652.61,1195.47C1646.46,1191.21 1644.92,1182.76 1649.17,1176.61C1653.43,1170.46 1661.88,1168.91 1668.03,1173.17C1672.53,1176.28 1676.94,1179.51 1681.26,1182.86C1687.17,1187.45 1688.25,1195.97 1683.67,1201.88C1679.08,1207.79 1670.56,1208.87 1664.65,1204.29C1660.72,1201.24 1656.71,1198.3 1652.61,1195.47Z" style="fill:white;"/>
        </g>
        <path d="M1089.12,1282.48L1156.46,1211.65L1352.68,1354.46C1352.68,1354.46 1489.43,1190.29 1564.32,1116.76C1638.74,1043.68 1802.01,913.257 1802.01,913.257L1925.09,912.096C1925.09,912.096 1702.23,1141.65 1607.8,1267.43C1513.58,1392.93 1358.48,1666.79 1358.48,1666.79C1358.48,1666.79 1273.07,1523.55 1228.17,1459.5C1184.92,1397.78 1089.12,1282.48 1089.12,1282.48Z" style="fill:none;stroke:white;stroke-width:34.39px;"/>
    </g>
</svg>
