<?xml version="1.0" encoding="UTF-8" standalone="no"?>
<!DOCTYPE svg PUBLIC "-//W3C//DTD SVG 1.1//EN" "http://www.w3.org/Graphics/SVG/1.1/DTD/svg11.dtd">
<svg width="100%" height="100%" viewBox="0 0 1430 887" version="1.1" xmlns="http://www.w3.org/2000/svg" xmlns:xlink="http://www.w3.org/1999/xlink" xml:space="preserve" xmlns:serif="http://www.serif.com/" style="fill-rule:evenodd;clip-rule:evenodd;stroke-linejoin:round;stroke-miterlimit:2;">
    <g transform="matrix(1,0,0,1,-507.133,-517.122)">
        <g transform="matrix(1,0,0,1,-139.201,164.511)">
            <g transform="matrix(801.525,0,0,801.525,652.039,1232.24)">
                <path d="M0.012,-0C0.011,0 0.01,0 0.01,0C0.007,0 0.005,-0.001 0.003,-0.003C0.001,-0.005 0,-0.007 0,-0.009C0,-0.014 0.003,-0.018 0.008,-0.019C0.022,-0.021 0.032,-0.033 0.04,-0.054C0.045,-0.071 0.048,-0.09 0.048,-0.111L0.048,-0.978C0.048,-1 0.045,-1.019 0.04,-1.036C0.032,-1.057 0.022,-1.069 0.008,-1.071C0.003,-1.072 0,-1.075 0,-1.08C0,-1.082 0.001,-1.084 0.003,-1.086C0.005,-1.089 0.007,-1.09 0.01,-1.09C0.01,-1.09 0.011,-1.09 0.012,-1.089C0.06,-1.074 0.118,-1.067 0.187,-1.067C0.215,-1.067 0.247,-1.068 0.283,-1.071C0.305,-1.072 0.338,-1.075 0.381,-1.079C0.422,-1.083 0.452,-1.085 0.472,-1.086C0.505,-1.089 0.534,-1.09 0.559,-1.09C0.609,-1.09 0.655,-1.081 0.697,-1.064C0.741,-1.046 0.776,-1.02 0.801,-0.987C0.829,-0.95 0.843,-0.906 0.843,-0.855C0.843,-0.819 0.836,-0.788 0.822,-0.761C0.81,-0.737 0.792,-0.715 0.768,-0.696C0.744,-0.678 0.718,-0.663 0.689,-0.65C0.671,-0.641 0.641,-0.629 0.599,-0.613C0.607,-0.613 0.615,-0.614 0.622,-0.614C0.671,-0.614 0.715,-0.603 0.756,-0.582C0.804,-0.557 0.841,-0.521 0.866,-0.473C0.889,-0.429 0.901,-0.378 0.901,-0.321C0.901,-0.265 0.888,-0.213 0.863,-0.164C0.837,-0.114 0.803,-0.075 0.759,-0.046C0.713,-0.015 0.661,0 0.605,0C0.57,0 0.509,-0.002 0.421,-0.008C0.322,-0.015 0.247,-0.019 0.197,-0.019C0.119,-0.019 0.057,-0.012 0.012,-0ZM0.285,-0.2C0.285,-0.164 0.292,-0.132 0.308,-0.105C0.323,-0.081 0.343,-0.062 0.368,-0.048C0.393,-0.036 0.419,-0.029 0.449,-0.029C0.485,-0.029 0.518,-0.039 0.55,-0.058C0.584,-0.078 0.611,-0.107 0.631,-0.144C0.653,-0.186 0.664,-0.235 0.664,-0.291C0.664,-0.338 0.655,-0.379 0.636,-0.413C0.62,-0.443 0.597,-0.466 0.568,-0.482C0.542,-0.497 0.513,-0.504 0.482,-0.504C0.451,-0.504 0.424,-0.497 0.399,-0.483C0.374,-0.468 0.356,-0.449 0.347,-0.424C0.343,-0.413 0.341,-0.403 0.341,-0.394C0.341,-0.378 0.347,-0.37 0.359,-0.37C0.373,-0.37 0.385,-0.365 0.394,-0.355C0.404,-0.346 0.409,-0.334 0.409,-0.321C0.409,-0.307 0.404,-0.296 0.394,-0.286C0.385,-0.276 0.373,-0.271 0.359,-0.271C0.346,-0.271 0.334,-0.276 0.325,-0.286C0.315,-0.296 0.311,-0.307 0.311,-0.321C0.311,-0.364 0.318,-0.405 0.333,-0.442C0.345,-0.472 0.364,-0.503 0.389,-0.533C0.404,-0.551 0.428,-0.576 0.461,-0.608C0.494,-0.64 0.517,-0.664 0.531,-0.681C0.555,-0.709 0.573,-0.737 0.584,-0.766C0.599,-0.8 0.606,-0.837 0.606,-0.877C0.606,-0.917 0.597,-0.951 0.579,-0.98C0.563,-1.007 0.541,-1.027 0.513,-1.042C0.487,-1.056 0.459,-1.063 0.43,-1.063C0.404,-1.063 0.38,-1.058 0.359,-1.047C0.336,-1.035 0.318,-1.019 0.306,-0.998C0.292,-0.975 0.285,-0.948 0.285,-0.917L0.285,-0.2Z" style="fill:none;fill-rule:nonzero;stroke:#ffa500;stroke-width:0.02px;"/>
            </g>
        </g>
        <g transform="matrix(1,0,0,1,607.424,-885.827)">
            <g transform="matrix(801.525,0,0,801.525,601.421,2282.95)">
                <path d="M0.011,-1.09C0.04,-1.083 0.071,-1.079 0.104,-1.076C0.135,-1.074 0.168,-1.072 0.203,-1.072C0.249,-1.072 0.318,-1.075 0.411,-1.081C0.499,-1.087 0.563,-1.09 0.604,-1.09C0.661,-1.09 0.713,-1.074 0.76,-1.041C0.804,-1.01 0.838,-0.969 0.863,-0.918C0.888,-0.867 0.9,-0.814 0.9,-0.758C0.9,-0.698 0.889,-0.643 0.865,-0.593C0.841,-0.543 0.807,-0.503 0.764,-0.475C0.717,-0.445 0.665,-0.43 0.605,-0.43C0.546,-0.43 0.493,-0.444 0.447,-0.474C0.404,-0.502 0.37,-0.541 0.345,-0.59C0.321,-0.639 0.309,-0.693 0.309,-0.753L0.309,-0.753C0.309,-0.786 0.314,-0.816 0.326,-0.845C0.338,-0.875 0.355,-0.899 0.376,-0.916C0.401,-0.936 0.429,-0.945 0.462,-0.945L0.462,-0.945C0.496,-0.945 0.525,-0.935 0.549,-0.915C0.571,-0.897 0.589,-0.873 0.601,-0.842C0.612,-0.813 0.618,-0.782 0.618,-0.749C0.618,-0.715 0.61,-0.683 0.593,-0.654C0.577,-0.624 0.554,-0.601 0.525,-0.585C0.519,-0.582 0.513,-0.58 0.505,-0.58C0.494,-0.58 0.484,-0.584 0.476,-0.592C0.467,-0.6 0.462,-0.611 0.462,-0.623C0.462,-0.635 0.466,-0.645 0.475,-0.653C0.483,-0.661 0.493,-0.666 0.505,-0.666L0.517,-0.666C0.539,-0.666 0.555,-0.667 0.565,-0.67C0.579,-0.674 0.587,-0.683 0.591,-0.696C0.593,-0.706 0.595,-0.716 0.595,-0.725C0.595,-0.746 0.589,-0.764 0.576,-0.78C0.564,-0.795 0.549,-0.806 0.529,-0.815C0.51,-0.823 0.489,-0.827 0.467,-0.827C0.444,-0.827 0.423,-0.822 0.403,-0.813C0.382,-0.804 0.366,-0.791 0.354,-0.773C0.341,-0.753 0.334,-0.73 0.334,-0.703C0.334,-0.682 0.338,-0.659 0.346,-0.635C0.358,-0.597 0.378,-0.568 0.405,-0.547C0.431,-0.528 0.459,-0.518 0.49,-0.518C0.52,-0.518 0.548,-0.527 0.573,-0.544C0.601,-0.563 0.622,-0.59 0.638,-0.624C0.655,-0.662 0.664,-0.707 0.664,-0.758C0.664,-0.819 0.651,-0.873 0.627,-0.921C0.605,-0.965 0.575,-0.999 0.538,-1.024C0.503,-1.048 0.467,-1.06 0.43,-1.06C0.403,-1.06 0.379,-1.053 0.357,-1.04C0.335,-1.026 0.317,-1.006 0.305,-0.979C0.291,-0.949 0.284,-0.914 0.284,-0.873L0.284,-0.112C0.284,-0.09 0.287,-0.071 0.293,-0.054C0.3,-0.033 0.311,-0.021 0.324,-0.019C0.329,-0.018 0.332,-0.015 0.332,-0.01C0.332,-0.007 0.331,-0.005 0.33,-0.003C0.328,-0.001 0.325,0 0.323,0C0.322,0 0.321,0 0.321,-0C0.27,-0.01 0.218,-0.015 0.166,-0.015C0.114,-0.015 0.062,-0.01 0.011,-0C0.011,0 0.01,0 0.009,0C0.006,0 0.004,-0.001 0.002,-0.003C0.001,-0.005 0,-0.007 0,-0.01C0,-0.015 0.003,-0.018 0.008,-0.019C0.021,-0.021 0.032,-0.033 0.039,-0.054C0.045,-0.071 0.047,-0.09 0.047,-0.112L0.047,-0.978C0.047,-1 0.045,-1.019 0.039,-1.036C0.032,-1.057 0.021,-1.069 0.008,-1.071C0.003,-1.072 0,-1.075 0,-1.08C0,-1.083 0.001,-1.085 0.002,-1.087C0.004,-1.089 0.006,-1.09 0.009,-1.09L0.011,-1.09Z" style="fill:none;fill-rule:nonzero;stroke:#ffa500;stroke-width:0.02px;"/>
            </g>
        </g>
    </g>
</svg>
